<svg xmlns="http://www.w3.org/2000/svg" width="24" height="24" viewBox="0 0 24 24"><path d="M0 0h24v24H0z" fill="none"/><path style="line-height:normal;text-indent:0;text-align:start;text-decoration-line:none;text-decoration-style:solid;text-decoration-color:#000;text-transform:none;block-progression:tb;isolation:auto;mix-blend-mode:normal" d="M 9 2 L 9 3 L 9 6.1445312 C 7.2841988 6.5944004 6 8.149665 6 10 L 6 20 C 6 21.093063 6.9069372 22 8 22 L 16 22 C 17.093063 22 18 21.093063 18 20 L 18 10 C 18 8.149665 16.715801 6.5944004 15 6.1445312 L 15 2 L 9 2 z M 11 4 L 13 4 L 13 6 L 11 6 L 11 4 z M 10 8 L 14 8 C 15.116666 8 16 8.8833339 16 10 L 16 20 L 8 20 L 8 13 L 14 13 L 14 11 L 8 11 L 8 10 C 8 8.8833339 8.8833339 8 10 8 z"/></svg>