<svg xmlns="http://www.w3.org/2000/svg" xmlns:xlink="http://www.w3.org/1999/xlink" viewBox="0 0 24 24" version="1.1"><g id="surface1"><path d="M 9 2 C 7.894531 2 7 2.894531 7 4 C 7 5.105469 7.894531 6 9 6 C 10.105469 6 11 5.105469 11 4 C 11 2.894531 10.105469 2 9 2 Z M 11.59375 6.1875 C 11.441406 6.1875 11.277344 6.214844 11.125 6.25 L 11.125 6.21875 L 10.96875 6.25 L 8.84375 6.625 L 8.75 6.625 L 8.6875 6.65625 C 8.199219 6.820313 7.71875 7.144531 7.375 7.65625 L 7.3125 7.71875 L 5.9375 10.21875 L 5.90625 10.21875 L 5.90625 10.25 C 5.714844 10.632813 5.300781 10.828125 4.8125 10.71875 L 3.0625 10.25 L 2.53125 12.15625 L 4.34375 12.65625 L 4.375 12.6875 C 5.671875 12.976563 7.035156 12.375 7.65625 11.1875 L 7.6875 11.1875 C 7.691406 11.179688 7.683594 11.164063 7.6875 11.15625 L 8 10.59375 L 8 13.90625 L 6.40625 16.3125 C 6.007813 16.914063 5.988281 17.585938 6.1875 18.1875 L 7.8125 22 L 9.90625 22 L 8.3125 17.8125 C 8.210938 17.511719 8.207031 17.199219 8.40625 17 L 9.6875 15.0625 L 10 15 L 10 16.09375 C 10 16.914063 10.3125 17.683594 10.8125 18.3125 L 13.21875 21.3125 L 14.78125 20.0625 L 12.40625 17.09375 L 12.375 17.0625 C 12.078125 16.691406 12 16.472656 12 16.09375 L 12 8.65625 L 12.625 9.25 L 12.65625 9.25 C 13.671875 10.121094 15.175781 10.292969 16.34375 9.5625 L 16.40625 9.5 L 17.59375 8.59375 L 16.40625 7 L 15.28125 7.84375 C 14.859375 8.105469 14.347656 8.058594 13.96875 7.75 L 13.9375 7.75 L 12.8125 6.6875 C 12.800781 6.675781 12.792969 6.664063 12.78125 6.65625 C 12.476563 6.367188 12.050781 6.191406 11.59375 6.1875 Z M 18 11.1875 L 18 12.0625 C 17.996094 12.105469 17.996094 12.144531 18 12.1875 L 18 15.25 C 17.839844 15.238281 17.679688 15.269531 17.5 15.3125 C 16.699219 15.511719 16 16.207031 16 16.90625 C 16 17.605469 16.699219 18.011719 17.5 17.8125 C 18.234375 17.628906 18.863281 17.011719 18.96875 16.375 C 18.980469 16.34375 18.992188 16.3125 19 16.28125 C 19 16.261719 19 16.238281 19 16.21875 C 19 16.207031 19 16.199219 19 16.1875 L 19 13.125 C 20.699219 13.554688 21 15 21 15 L 21 14 C 21 12.601563 19.898438 11.1875 18 11.1875 Z "/></g></svg>